<mxfile host="app.diagrams.net" agent="Mozilla/5.0 (Windows NT 10.0; Win64; x64) AppleWebKit/537.36 (KHTML, like Gecko) Chrome/134.0.0.0 Safari/537.36 Edg/134.0.0.0" version="26.1.1">
  <diagram name="第 1 页" id="Ah9mvtOemvJSYAKlpVYC">
    <mxGraphModel dx="835" dy="514" grid="1" gridSize="10" guides="1" tooltips="1" connect="1" arrows="1" fold="1" page="1" pageScale="1" pageWidth="827" pageHeight="1169" math="0" shadow="0">
      <root>
        <mxCell id="0" />
        <mxCell id="1" parent="0" />
        <mxCell id="rBq4k1n-0M6meJgrLLwT-1" value="用户" style="shape=umlActor;verticalLabelPosition=bottom;verticalAlign=top;html=1;outlineConnect=0;" vertex="1" parent="1">
          <mxGeometry x="200" y="130" width="30" height="60" as="geometry" />
        </mxCell>
        <mxCell id="rBq4k1n-0M6meJgrLLwT-2" value="" style="endArrow=none;dashed=1;html=1;dashPattern=1 3;strokeWidth=2;rounded=0;" edge="1" parent="1">
          <mxGeometry width="50" height="50" relative="1" as="geometry">
            <mxPoint x="215" y="520" as="sourcePoint" />
            <mxPoint x="214.5" y="220" as="targetPoint" />
          </mxGeometry>
        </mxCell>
        <mxCell id="rBq4k1n-0M6meJgrLLwT-3" value="搜索平台" style="rounded=0;whiteSpace=wrap;html=1;" vertex="1" parent="1">
          <mxGeometry x="360" y="137.5" width="90" height="45" as="geometry" />
        </mxCell>
        <mxCell id="rBq4k1n-0M6meJgrLLwT-4" value="" style="endArrow=none;dashed=1;html=1;dashPattern=1 3;strokeWidth=2;rounded=0;" edge="1" parent="1" source="rBq4k1n-0M6meJgrLLwT-24">
          <mxGeometry width="50" height="50" relative="1" as="geometry">
            <mxPoint x="405" y="520" as="sourcePoint" />
            <mxPoint x="404.5800000000001" y="182.5" as="targetPoint" />
          </mxGeometry>
        </mxCell>
        <mxCell id="rBq4k1n-0M6meJgrLLwT-5" value="大语言模型" style="rounded=0;whiteSpace=wrap;html=1;" vertex="1" parent="1">
          <mxGeometry x="560" y="137.5" width="90" height="45" as="geometry" />
        </mxCell>
        <mxCell id="rBq4k1n-0M6meJgrLLwT-6" value="" style="endArrow=none;dashed=1;html=1;dashPattern=1 3;strokeWidth=2;rounded=0;" edge="1" parent="1" source="rBq4k1n-0M6meJgrLLwT-13">
          <mxGeometry width="50" height="50" relative="1" as="geometry">
            <mxPoint x="605.08" y="522.5" as="sourcePoint" />
            <mxPoint x="604.58" y="182.5" as="targetPoint" />
          </mxGeometry>
        </mxCell>
        <mxCell id="rBq4k1n-0M6meJgrLLwT-7" value="" style="endArrow=classic;html=1;rounded=0;entryX=0;entryY=0;entryDx=0;entryDy=0;" edge="1" parent="1" target="rBq4k1n-0M6meJgrLLwT-9">
          <mxGeometry width="50" height="50" relative="1" as="geometry">
            <mxPoint x="220" y="260" as="sourcePoint" />
            <mxPoint x="390" y="261" as="targetPoint" />
          </mxGeometry>
        </mxCell>
        <mxCell id="rBq4k1n-0M6meJgrLLwT-8" value="1：提交自然语言" style="edgeLabel;html=1;align=center;verticalAlign=middle;resizable=0;points=[];" vertex="1" connectable="0" parent="rBq4k1n-0M6meJgrLLwT-7">
          <mxGeometry x="-0.1163" y="1" relative="1" as="geometry">
            <mxPoint x="3" y="1" as="offset" />
          </mxGeometry>
        </mxCell>
        <mxCell id="rBq4k1n-0M6meJgrLLwT-9" value="" style="rounded=1;whiteSpace=wrap;html=1;" vertex="1" parent="1">
          <mxGeometry x="395" y="260" width="20" height="30" as="geometry" />
        </mxCell>
        <mxCell id="rBq4k1n-0M6meJgrLLwT-10" value="" style="endArrow=classic;html=1;rounded=0;exitX=1;exitY=1;exitDx=0;exitDy=0;" edge="1" parent="1">
          <mxGeometry width="50" height="50" relative="1" as="geometry">
            <mxPoint x="414" y="270" as="sourcePoint" />
            <mxPoint x="599" y="270" as="targetPoint" />
          </mxGeometry>
        </mxCell>
        <mxCell id="rBq4k1n-0M6meJgrLLwT-11" value="2：提交修饰后的自然语言" style="edgeLabel;html=1;align=center;verticalAlign=middle;resizable=0;points=[];" vertex="1" connectable="0" parent="rBq4k1n-0M6meJgrLLwT-10">
          <mxGeometry x="-0.166" y="1" relative="1" as="geometry">
            <mxPoint x="9" y="1" as="offset" />
          </mxGeometry>
        </mxCell>
        <mxCell id="rBq4k1n-0M6meJgrLLwT-12" value="" style="endArrow=none;dashed=1;html=1;dashPattern=1 3;strokeWidth=2;rounded=0;" edge="1" parent="1" target="rBq4k1n-0M6meJgrLLwT-13">
          <mxGeometry width="50" height="50" relative="1" as="geometry">
            <mxPoint x="605" y="520" as="sourcePoint" />
            <mxPoint x="604.58" y="182.5" as="targetPoint" />
          </mxGeometry>
        </mxCell>
        <mxCell id="rBq4k1n-0M6meJgrLLwT-13" value="" style="rounded=1;whiteSpace=wrap;html=1;" vertex="1" parent="1">
          <mxGeometry x="595" y="270" width="20" height="70" as="geometry" />
        </mxCell>
        <mxCell id="rBq4k1n-0M6meJgrLLwT-14" value="" style="endArrow=classic;html=1;rounded=0;exitX=0;exitY=1;exitDx=0;exitDy=0;" edge="1" parent="1" source="rBq4k1n-0M6meJgrLLwT-13">
          <mxGeometry width="50" height="50" relative="1" as="geometry">
            <mxPoint x="450" y="330" as="sourcePoint" />
            <mxPoint x="410" y="340" as="targetPoint" />
          </mxGeometry>
        </mxCell>
        <mxCell id="rBq4k1n-0M6meJgrLLwT-15" value="3：返回关键字集合" style="edgeLabel;html=1;align=center;verticalAlign=middle;resizable=0;points=[];" vertex="1" connectable="0" parent="rBq4k1n-0M6meJgrLLwT-14">
          <mxGeometry x="0.3385" y="1" relative="1" as="geometry">
            <mxPoint x="39" y="-1" as="offset" />
          </mxGeometry>
        </mxCell>
        <mxCell id="rBq4k1n-0M6meJgrLLwT-17" value="" style="rounded=1;whiteSpace=wrap;html=1;" vertex="1" parent="1">
          <mxGeometry x="393" y="440" width="20" height="40" as="geometry" />
        </mxCell>
        <mxCell id="rBq4k1n-0M6meJgrLLwT-18" value="" style="endArrow=classic;html=1;rounded=0;exitX=0;exitY=1;exitDx=0;exitDy=0;" edge="1" parent="1">
          <mxGeometry width="50" height="50" relative="1" as="geometry">
            <mxPoint x="395" y="479.99999999999994" as="sourcePoint" />
            <mxPoint x="220" y="479.99999999999994" as="targetPoint" />
          </mxGeometry>
        </mxCell>
        <mxCell id="rBq4k1n-0M6meJgrLLwT-19" value="6：返回搜索结果" style="edgeLabel;html=1;align=center;verticalAlign=middle;resizable=0;points=[];" vertex="1" connectable="0" parent="rBq4k1n-0M6meJgrLLwT-18">
          <mxGeometry x="0.3385" y="1" relative="1" as="geometry">
            <mxPoint x="39" y="-1" as="offset" />
          </mxGeometry>
        </mxCell>
        <mxCell id="rBq4k1n-0M6meJgrLLwT-20" value="各信息来源网站服务器" style="rounded=0;whiteSpace=wrap;html=1;" vertex="1" parent="1">
          <mxGeometry x="760" y="137.5" width="90" height="45" as="geometry" />
        </mxCell>
        <mxCell id="rBq4k1n-0M6meJgrLLwT-21" value="" style="endArrow=none;dashed=1;html=1;dashPattern=1 3;strokeWidth=2;rounded=0;" edge="1" parent="1">
          <mxGeometry width="50" height="50" relative="1" as="geometry">
            <mxPoint x="805" y="520" as="sourcePoint" />
            <mxPoint x="804.58" y="182.5" as="targetPoint" />
          </mxGeometry>
        </mxCell>
        <mxCell id="rBq4k1n-0M6meJgrLLwT-25" value="" style="endArrow=classic;html=1;rounded=0;exitX=1;exitY=1;exitDx=0;exitDy=0;" edge="1" parent="1">
          <mxGeometry width="50" height="50" relative="1" as="geometry">
            <mxPoint x="414" y="370" as="sourcePoint" />
            <mxPoint x="790" y="370" as="targetPoint" />
          </mxGeometry>
        </mxCell>
        <mxCell id="rBq4k1n-0M6meJgrLLwT-26" value="4：并发发送搜索请求" style="edgeLabel;html=1;align=center;verticalAlign=middle;resizable=0;points=[];" vertex="1" connectable="0" parent="rBq4k1n-0M6meJgrLLwT-25">
          <mxGeometry x="-0.166" y="1" relative="1" as="geometry">
            <mxPoint x="119" y="1" as="offset" />
          </mxGeometry>
        </mxCell>
        <mxCell id="rBq4k1n-0M6meJgrLLwT-28" value="" style="rounded=1;whiteSpace=wrap;html=1;" vertex="1" parent="1">
          <mxGeometry x="795" y="370" width="20" height="70" as="geometry" />
        </mxCell>
        <mxCell id="rBq4k1n-0M6meJgrLLwT-29" value="" style="endArrow=classic;html=1;rounded=0;exitX=0;exitY=1;exitDx=0;exitDy=0;" edge="1" parent="1" source="rBq4k1n-0M6meJgrLLwT-28">
          <mxGeometry width="50" height="50" relative="1" as="geometry">
            <mxPoint x="505" y="450" as="sourcePoint" />
            <mxPoint x="410" y="440" as="targetPoint" />
          </mxGeometry>
        </mxCell>
        <mxCell id="rBq4k1n-0M6meJgrLLwT-30" value="5：所有结果成功返回" style="edgeLabel;html=1;align=center;verticalAlign=middle;resizable=0;points=[];" vertex="1" connectable="0" parent="rBq4k1n-0M6meJgrLLwT-29">
          <mxGeometry x="0.3385" y="1" relative="1" as="geometry">
            <mxPoint x="-27" y="-1" as="offset" />
          </mxGeometry>
        </mxCell>
        <mxCell id="rBq4k1n-0M6meJgrLLwT-32" value="" style="endArrow=none;dashed=1;html=1;dashPattern=1 3;strokeWidth=2;rounded=0;" edge="1" parent="1" target="rBq4k1n-0M6meJgrLLwT-24">
          <mxGeometry width="50" height="50" relative="1" as="geometry">
            <mxPoint x="400" y="520" as="sourcePoint" />
            <mxPoint x="404.5800000000001" y="182.5" as="targetPoint" />
          </mxGeometry>
        </mxCell>
        <mxCell id="rBq4k1n-0M6meJgrLLwT-24" value="" style="rounded=1;whiteSpace=wrap;html=1;" vertex="1" parent="1">
          <mxGeometry x="393" y="340" width="20" height="30" as="geometry" />
        </mxCell>
      </root>
    </mxGraphModel>
  </diagram>
</mxfile>
